<?xml version="1.0" encoding="utf-8"?>
<!-- Generator: Adobe Illustrator 26.2.1, SVG Export Plug-In . SVG Version: 6.00 Build 0)  -->
<svg version="1.1" id="Calque_1" xmlns="http://www.w3.org/2000/svg" xmlns:xlink="http://www.w3.org/1999/xlink" x="0px" y="0px"
	 viewBox="0 0 711 425" style="enable-background:new 0 0 711 425;" xml:space="preserve">
<style type="text/css">
	.st0{fill:#FFFFFF;}
	.st1{fill:#3FA9F5;}
	.st2{fill:#FF1D25;}
</style>
<g id="logo_1">
	<path class="st0" d="M105.4,145.9V25.5h65.2c14.6,0,22,7.4,22,22.5v19c0,10.9-4.3,17.1-13.4,18.7c9.5,2.1,13.7,7.8,13.7,17.3v20.6
		c0,14.9-7.3,22.3-21.8,22.3L105.4,145.9L105.4,145.9z M165.5,59.7c0-3.2-1.6-4.8-4.8-4.8h-27.8v18.5h27.8c3.2,0,4.8-1.6,4.8-4.8
		V59.7z M165.5,102.5c0-3.2-1.6-4.8-4.8-4.8h-27.8v18.7h27.8c3.2,0,4.8-1.6,4.8-4.8V102.5z"/>
	<path class="st0" d="M279.4,145.9V96.5h-36.6v49.4h-27.4V46.6c0-14.1,7.5-21.1,22.3-21.1h46.9c14.8,0,22.3,7,22.3,21.1v99.3H279.4z
		 M279.4,59.7c0-3.2-1.6-4.8-4.8-4.8h-27c-3.2,0-4.8,1.6-4.8,4.8v11.4h36.6V59.7z"/>
	<path class="st0" d="M330.3,145.9V25.5h65.2c14.6,0,22,7.4,22,22.5v19c0,10.9-4.3,17.1-13.4,18.7c9.5,2.1,13.7,7.8,13.7,17.3v20.6
		c0,14.9-7.3,22.3-21.8,22.3L330.3,145.9L330.3,145.9z M390.4,59.7c0-3.2-1.6-4.8-4.8-4.8h-27.8v18.5h27.8c3.2,0,4.8-1.6,4.8-4.8
		V59.7z M390.4,102.5c0-3.2-1.6-4.8-4.8-4.8h-27.8v18.7h27.8c3.2,0,4.8-1.6,4.8-4.8V102.5z"/>
	<path class="st0" d="M440.7,145.9V25.5h75.5v29.8h-47.9v17.1h41.4v25.5h-41.4v17.7h48.2v30.3H440.7z"/>
	<path class="st0" d="M537.4,145.9V25.5h27.5v90.1h43.7v30.3L537.4,145.9L537.4,145.9z"/>
	<g>
		<path class="st0" d="M12,400.1V179.9h135.3v54.5H62.6v31.3h63.4v48.7H62.6v85.8L12,400.1L12,400.1z"/>
		<path class="st0" d="M182.8,400.1V179.9h138.2v54.5h-87.6v31.3h75.7v46.7h-75.7v32.5h88.2v55.4L182.8,400.1L182.8,400.1z"/>
		<path class="st0" d="M358.6,400.1v-55.4h99.2c5.8,0,8.7-2.9,8.7-8.7v-14.5c0-5.8-2.9-8.7-8.7-8.7h-58.8
			c-27.1,0-40.7-12.8-40.7-38.5v-52.5c0-28.1,13.1-42,39.3-42h114.1v55.4h-94.3c-5.8,0-8.7,2.9-8.7,8.7v14.2c0,5.8,2.9,8.7,8.7,8.7
			h60.5c25.9,0,38.7,13,38.7,38.8v51.6c0,28.7-14,42.9-42.2,42.9L358.6,400.1L358.6,400.1z"/>
		<path class="st0" d="M601.3,400.1V235.2h-50.6v-55.4H702v55.4h-50.6v164.9H601.3L601.3,400.1z"/>
	</g>
	<g>
		<g>
			<path class="st0" d="M28.1,13h35c8.8,0,16,7.2,16,16v35c0,8.8-7.2,16-16,16h-35c-8.8,0-16-7.2-16-16V29
				C12.1,20.2,19.3,13,28.1,13z"/>
			<path class="st1" d="M27.4,89.1h35c8.8,0,16,7.2,16,16v35c0,8.8-7.2,16-16,16h-35c-8.8,0-16-7.2-16-16v-35
				C11.4,96.2,18.5,89.1,27.4,89.1z"/>
		</g>
		<g>
			<path class="st2" d="M651.6,9.3h35c8.8,0,16,7.2,16,16v35c0,8.8-7.2,16-16,16h-35c-8.8,0-16-7.2-16-16v-35
				C635.5,16.5,642.7,9.3,651.6,9.3z"/>
			<path class="st0" d="M650.7,87.8h35c8.8,0,16,7.2,16,16v35c0,8.8-7.2,16-16,16h-35c-8.8,0-16-7.2-16-16v-35
				C634.7,94.9,641.9,87.8,650.7,87.8z"/>
		</g>
	</g>
</g>
<g id="Calque_2_00000158709864777427273820000008126846818356233141_">
</g>
</svg>
