<?xml version="1.0" encoding="utf-8"?>
<!-- Generator: Adobe Illustrator 26.2.1, SVG Export Plug-In . SVG Version: 6.00 Build 0)  -->
<svg version="1.1" id="Calque_1" xmlns="http://www.w3.org/2000/svg"
  xmlns:xlink="http://www.w3.org/1999/xlink" x="0px" y="0px"
  viewBox="0 0 200 200" style="enable-background:new 0 0 200 200;" xml:space="preserve">
<style type="text/css">
	.st0{fill:#FFFFFF;}
	.st1{fill:#FF1D25;}
	.st2{fill:#3FA9F5;}
</style>
<g id="logo_1">
	<g id="Carrés">
		<path class="st0" id="square_1" d="M121.8,37.2h27.1c8.8,0,16,7.2,16,16v27.1c0,8.8-7.2,16-16,16h-27.1c-8.8,0-16-7.2-16-16V53.2
			C105.8,44.4,113,37.2,121.8,37.2z"/>
		<path class="st1" id="square_2" d="M52.8,36.3h27.1c8.8,0,16,7.2,16,16v27.1c0,8.8-7.2,16-16,16H52.8c-8.8,0-16-7.2-16-16V52.4
			C36.7,43.5,43.9,36.3,52.8,36.3z"/>
		<path class="st2" id="square_3" d="M121.2,104.2h27.1c8.8,0,16,7.2,16,16v27.1c0,8.8-7.2,16-16,16h-27.1c-8.8,0-16-7.2-16-16v-27.1
			C105.2,111.4,112.3,104.2,121.2,104.2z"/>
		<path class="st0" id="square_4" d="M52,105.5h27.1c8.8,0,16,7.2,16,16v27.1c0,8.8-7.2,16-16,16H52c-8.8,0-16-7.2-16-16v-27.1
			C36,112.6,43.2,105.5,52,105.5z"/>
	</g>
</g>
<g id="Cubes">
</g>
<g id="Fest">
</g>
<g id="Babel">
</g>
</svg>