<?xml version="1.0" encoding="UTF-8"?>
<svg id="OBJECTS" xmlns="http://www.w3.org/2000/svg" viewBox="0 0 94.52 105.64">
  <defs>
    <style>
      .cls-1 {
        fill: #fff;
      }

      .cls-2 {
        fill: #40a8f5;
      }

      .cls-3 {
        fill: #e62e31;
      }
    </style>
  </defs>
  <g>
    <path class="cls-2" d="M22.43,99.51c-.32,0-.65-.04-.97-.12-1.58-.39-2.76-1.71-2.99-3.32L6.56,12.5c-.22-1.53,.47-3.05,1.76-3.91,.67-.44,1.43-.66,2.2-.66,.72,0,1.44,.19,2.08,.59L84.66,52.51c1.39,.85,2.13,2.45,1.86,4.06s-1.47,2.89-3.06,3.25l-36.02,8.22-21.79,29.83c-.76,1.05-1.97,1.64-3.23,1.64Z"/>
    <path class="cls-1" d="M10.52,11.93L82.58,55.92l-37.47,8.55-22.68,31.04L10.52,11.93m0-8c-1.53,0-3.07,.44-4.4,1.32-2.59,1.7-3.96,4.74-3.52,7.81L14.51,96.64c.46,3.22,2.82,5.85,5.98,6.63,.64,.16,1.29,.24,1.94,.24,2.52,0,4.93-1.19,6.46-3.28l20.91-28.62,34.56-7.88c3.17-.72,5.59-3.3,6.12-6.51s-.95-6.42-3.73-8.12L14.69,5.1c-1.28-.78-2.73-1.17-4.17-1.17h0Z"/>
  </g>
  <g>
    <polygon class="cls-3" points="22.43 95.51 10.52 11.93 45.1 64.47 22.43 95.51"/>
    <polygon class="cls-2" points="82.58 55.92 10.52 11.93 45.1 64.47 82.58 55.92"/>
  </g>
</svg>