<?xml version="1.0" encoding="UTF-8"?>
<svg id="OBJECTS" xmlns="http://www.w3.org/2000/svg" viewBox="0 0 130.69 116.73">
  <defs>
    <style>
      .cls-1 {
        fill: #fff;
      }

      .cls-2 {
        fill: #cfe5dc;
      }

      .cls-3 {
        fill: #40a8f5;
      }

      .cls-4 {
        fill: #a72e31;
      }

      .cls-5 {
        fill: #e62e31;
      }
    </style>
  </defs>
  <g>
    <path class="cls-1" d="M80.62,111.52c-6.04,0-11.01-2.14-14.37-6.19-3.56-4.29-4.13-8.88-3.82-12.37-11.25-.42-22.74-4.86-27.21-6.58-.35-.14-.65-.25-.89-.34-.37,.1-1.06,.35-1.55,.52-1.68,.59-3.77,1.32-6.01,1.32-2.81,0-5.19-1.16-6.89-3.36-2.56-3.31-3.65-7.29-3.08-11.21,.43-2.91,2.02-7.15,7.14-10.81,3.97-2.83,9.46-3.23,14.79-3.23,.78,0,1.54,0,2.29,.02,.68,0,1.33,.01,1.96,.01,.28,0,.53,0,.77,0-.07-.04-.26-.11-.3-.13C23.3,50.79,10.08,34.1,12.03,19.51c1.32-9.88,7.34-14.3,12.73-14.3,4.38,0,8.34,2.65,10.86,7.27,1.73,3.17,4.42,6.24,8,9.14,2.13-.64,4.44-.96,6.9-.96,5.8,0,11.4,1.77,15.38,3.44,3.18-.46,6.48-.7,9.84-.7,4.32,0,8.6,.39,12.7,1.16,14.64,2.75,24.47,26.74,25.55,29.46,.88,2.21,1.52,4.25,1.94,6.16,9.25,3.37,10.77,13.85,10.83,14.33,0,.07,.02,.13,.02,.2,1.59,19-29.45,32.63-30.77,33.2-5.47,2.36-10.8,3.61-15.4,3.61h0Z"/>
    <path class="cls-1" d="M24.76,9.21c2.71,0,5.46,1.72,7.35,5.19,2.66,4.88,6.87,8.82,10.81,11.74h0c2.42-1.06,5.02-1.47,7.6-1.47,5.8,0,11.5,2.08,14.86,3.57,3.26-.54,6.77-.83,10.36-.83,3.94,0,8,.35,11.96,1.09,12.89,2.42,22.56,26.99,22.56,26.99,1.24,3.11,1.91,5.7,2.15,7.89,9.03,1.57,10.38,11.67,10.38,11.67,1.15,13.74-20.25,25.68-28.37,29.19-4.51,1.95-9.37,3.28-13.82,3.28s-8.47-1.34-11.29-4.74c-5.37-6.47-1.83-13.9-1.83-13.9l.02-.04c-.39,.04-.79,.07-1.17,.09-.74,.04-1.48,.07-2.23,.07-12.75,0-26.72-6.15-29-6.92-.18-.06-.38-.09-.59-.09-1.83,0-4.95,1.89-7.77,1.89-1.38,0-2.68-.45-3.73-1.8-3.42-4.43-3.83-11.28,3.22-16.32,3.09-2.21,7.97-2.48,12.47-2.48,1.48,0,2.92,.03,4.25,.03,3.83,0,6.68-.25,6.65-2.18-.05-3.89-4.63-5.64-4.63-5.64C25.66,47.44,14.38,32.13,15.99,20.04c.96-7.17,4.81-10.83,8.76-10.83m0-8c-7.13,0-15.06,5.49-16.69,17.77-1.09,8.17,1.86,17.14,8.31,25.27,3.5,4.42,7.86,8.4,12.88,11.81-2.74,.57-5.34,1.55-7.64,3.19-6.27,4.48-8.23,9.8-8.77,13.48-.74,5,.64,10.06,3.87,14.24,2.45,3.17,6.02,4.91,10.06,4.91,2.92,0,5.47-.89,7.33-1.54l.13-.05c4.38,1.69,14.02,5.31,24.23,6.39,.36,3.64,1.69,7.57,4.7,11.2,4.14,4.99,10.17,7.63,17.45,7.63,5.15,0,11.02-1.36,16.99-3.94,3.59-1.55,34.97-15.74,33.17-37.2-.01-.13-.03-.26-.04-.39-.65-4.87-3.79-12.87-11.4-16.68-.43-1.52-.97-3.11-1.63-4.77-.1-.24-2.72-6.88-7.09-13.87-6.58-10.53-13.79-16.6-21.43-18.03-4.35-.81-8.87-1.23-13.44-1.23-3.17,0-6.29,.2-9.32,.59-4.25-1.68-9.94-3.33-15.9-3.33-2.04,0-4,.19-5.87,.58-2.42-2.18-4.3-4.44-5.52-6.68C35.94,4.71,30.57,1.21,24.76,1.21v0h0Z"/>
  </g>
  <g>
    <path class="cls-3" d="M110.27,55.49s-9.67-24.58-22.56-26.99c-7.59-1.42-15.49-1.39-22.33-.26-4.85-2.16-14.6-5.54-22.46-2.1h0c-3.95-2.92-8.15-6.86-10.81-11.74-4.66-8.55-14.5-6.45-16.12,5.64s9.67,27.4,29.01,35.46c0,0,4.58,1.75,4.63,5.64,.06,4.63-16.32-.4-23.37,4.63-7.05,5.04-6.65,11.89-3.22,16.32,3.42,4.43,9.67-.81,12.09,0s17.93,7.66,31.22,6.85,33.64-9.47,38.28-12.49c4.63-3.02,11.51-6.23,5.64-20.95Z"/>
    <path class="cls-2" d="M122.81,75.05s-1.59-11.89-12.84-11.88c0,0-27.15-2.07-42.47,25.71,0,0-3.54,7.43,1.83,13.9,5.64,6.8,16.09,5.35,25.11,1.46,8.12-3.51,29.53-15.45,28.37-29.19Z"/>
    <path class="cls-5" d="M122.81,75.05s-1.59-11.89-12.84-11.88c0,0-27.15-2.07-42.47,25.71,0,0-3.54,7.43,1.83,13.9,5.64,6.8,16.09,5.35,25.11,1.46,8.12-3.51,29.53-15.45,28.37-29.19Z"/>
    <path class="cls-4" d="M119.34,77.02c2.26,2.41-2.18,10.87-13.46,18.03-11.28,7.16-22.22,11-25.44,8.73-3.97-2.81,8.35-15.07,17.83-20.29,9.48-5.22,19.82-7.8,21.06-6.47Z"/>
  </g>
</svg>